<svg xmlns="http://www.w3.org/2000/svg" viewBox="0 0 30 30"><path fill="none" d="M18.67,10h0a5.48,5.48,0,0,0-1.68.52l-.5.2a4,4,0,0,1-1.42.28h-.12a4,4,0,0,1-1.42-.28l-.5-.2A5.48,5.48,0,0,0,11.34,10h0C7.31,10,5,12.57,5,17c0,4.7,2.87,10,6.7,10a7.93,7.93,0,0,0,2.92-.59l.38-.16.38.16a7.94,7.94,0,0,0,2.93.59C22.13,27,25,21.74,25,17,25,12.57,22.69,10,18.67,10Z"/><path fill="none" d="M20.92,4.52a2.71,2.71,0,0,0,1-1.67,4.3,4.3,0,0,0-2.82.63,2.71,2.71,0,0,0-1,1.67A4.24,4.24,0,0,0,20.92,4.52Z"/><path fill="currentColor" d="M18.67,8h0a6.83,6.83,0,0,0-2.46.67l-.28.12C15.31,4.25,11.23,3,9,3A1,1,0,0,0,9,5c.18,0,4.12,0,4.88,3.71l-.08,0A6.83,6.83,0,0,0,11.34,8h0C6.19,8,3,11.46,3,17c0,5.77,3.5,12,8.71,12A10,10,0,0,0,15,28.41a10,10,0,0,0,3.3.59c5.2,0,8.7-6.19,8.7-12C27,11.46,23.81,8,18.67,8Zm-.36,19a7.94,7.94,0,0,1-2.93-.59L15,26.25l-.38.16A7.93,7.93,0,0,1,11.7,27C7.87,27,5,21.74,5,17c0-4.47,2.31-7,6.33-7h0a5.48,5.48,0,0,1,1.68.52l.5.2a4,4,0,0,0,1.42.28h.12a4,4,0,0,0,1.42-.28l.5-.2A5.48,5.48,0,0,1,18.66,10h0c4,0,6.33,2.57,6.33,7C25,21.74,22.13,27,18.31,27Z"/><path fill="currentColor" d="M18.57,7.16a5.87,5.87,0,0,0,3.55-1A5.09,5.09,0,0,0,24,2l0-.82L23.24,1c-.13,0-3.23-.76-5.36.85A5.09,5.09,0,0,0,16,6l0,.82.79.19A8.1,8.1,0,0,0,18.57,7.16Zm.51-3.68a4.3,4.3,0,0,1,2.82-.63,2.71,2.71,0,0,1-1,1.67,4.24,4.24,0,0,1-2.82.63A2.71,2.71,0,0,1,19.08,3.48Z"/></svg>
