<svg xmlns="http://www.w3.org/2000/svg" viewBox="0 0 30 30"><path fill="none" d="M20.6,7.88A6.22,6.22,0,0,0,15,4,6.22,6.22,0,0,0,9.4,7.88L7.55,12h14.9Z"/><path fill="currentColor" d="M29,12H24.65L22.42,7.06A8.19,8.19,0,0,0,15,2,8.19,8.19,0,0,0,7.58,7.06L5.35,12H1a1,1,0,0,0,0,2H2.13L3.79,26.16A2,2,0,0,0,5.73,28H24.16a2,2,0,0,0,1.94-1.93L27.86,14H29a1,1,0,0,0,0-2ZM9.4,7.88A6.22,6.22,0,0,1,15,4a6.22,6.22,0,0,1,5.6,3.88L22.45,12H7.55Zm14.72,18a.34.34,0,0,1,0,.14H5.81a.23.23,0,0,1,0-.11L4.15,14H25.84Z"/><path fill="currentColor" d="M20,16a1,1,0,0,0-1,1v6a1,1,0,0,0,2,0V17A1,1,0,0,0,20,16Z"/><path fill="currentColor" d="M15,16a1,1,0,0,0-1,1v6a1,1,0,0,0,2,0V17A1,1,0,0,0,15,16Z"/><path fill="currentColor" d="M10,16a1,1,0,0,0-1,1v6a1,1,0,0,0,2,0V17A1,1,0,0,0,10,16Z"/></svg>
