<svg id="Layer_1" data-name="Layer 1" xmlns="http://www.w3.org/2000/svg" viewBox="0 0 30 30"><defs><style>.cls-1{fill:none;}.cls-2{fill:#231f20;}</style></defs><title>Calendar 30x30px</title><path class="cls-1" d="M23,7a1,1,0,0,1-2,0V6H9V7A1,1,0,0,1,7,7V6H4v4H26V6H23Z"/><path class="cls-1" d="M4,26H26V12H4ZM19,14h2v2H19Zm0,4h2v2H19Zm0,4h2v2H19Zm-5-8h2v2H14Zm0,4h2v2H14Zm0,4h2v2H14ZM9,14h2v2H9Zm0,4h2v2H9Zm0,4h2v2H9Z"/><path class="cls-2" d="M26,4H23V3a1,1,0,0,0-2,0V4H9V3A1,1,0,0,0,7,3V4H4A2,2,0,0,0,2,6V26a2,2,0,0,0,2,2H26a2,2,0,0,0,2-2V6A2,2,0,0,0,26,4Zm0,22H4V12H26Zm0-16H4V6H7V7A1,1,0,0,0,9,7V6H21V7a1,1,0,0,0,2,0V6h3Z"/><rect class="cls-2" x="19" y="14" width="2" height="2"/><rect class="cls-2" x="14" y="14" width="2" height="2"/><rect class="cls-2" x="9" y="14" width="2" height="2"/><rect class="cls-2" x="19" y="18" width="2" height="2"/><rect class="cls-2" x="14" y="18" width="2" height="2"/><rect class="cls-2" x="9" y="18" width="2" height="2"/><rect class="cls-2" x="19" y="22" width="2" height="2"/><rect class="cls-2" x="14" y="22" width="2" height="2"/><rect class="cls-2" x="9" y="22" width="2" height="2"/></svg>