<svg xmlns="http://www.w3.org/2000/svg" viewBox="0 0 30 30"><rect fill="none" x="11" y="4" width="8" height="2"/><path fill="none" d="M21,7a1,1,0,0,1-1,1H10A1,1,0,0,1,9,7V6H7V26H23V6H21Zm-1.29,7.71-6,6a1,1,0,0,1-1.42,0l-2-2a1,1,0,0,1,1.42-1.42L13,18.59l5.29-5.3a1,1,0,0,1,1.42,1.42Z"/><path fill="currentColor" d="M23,4H21V3a1,1,0,0,0-1-1H10A1,1,0,0,0,9,3V4H7A2,2,0,0,0,5,6V26a2,2,0,0,0,2,2H23a2,2,0,0,0,2-2V6A2,2,0,0,0,23,4ZM11,4h8V6H11ZM23,26H7V6H9V7a1,1,0,0,0,1,1H20a1,1,0,0,0,1-1V6h2Z"/><path fill="currentColor" d="M18.29,13.29,13,18.59l-1.29-1.3a1,1,0,0,0-1.42,1.42l2,2a1,1,0,0,0,1.42,0l6-6a1,1,0,0,0-1.42-1.42Z"/></svg>
