<svg xmlns="http://www.w3.org/2000/svg" viewBox="0 0 30 30"><path fill="currentColor" d="M12,14H5a2,2,0,0,1-2-2V5A2,2,0,0,1,5,3h7a2,2,0,0,1,2,2v7A2,2,0,0,1,12,14ZM5,5H5v7h7V5Z"/><path fill="currentColor" d="M25,14H18a2,2,0,0,1-2-2V5a2,2,0,0,1,2-2h7a2,2,0,0,1,2,2v7A2,2,0,0,1,25,14ZM18,5h0v7h7V5Z"/><path fill="currentColor" d="M12,27H5a2,2,0,0,1-2-2V18a2,2,0,0,1,2-2h7a2,2,0,0,1,2,2v7A2,2,0,0,1,12,27ZM5,18H5v7h7V18Z"/><path fill="currentColor" d="M25,27H18a2,2,0,0,1-2-2V18a2,2,0,0,1,2-2h7a2,2,0,0,1,2,2v7A2,2,0,0,1,25,27Zm-7-9h0v7h7V18Z"/></svg>
