<svg id="Layer_1" data-name="Layer 1" xmlns="http://www.w3.org/2000/svg" viewBox="0 0 30 30"><defs><style>.cls-1{fill:none;}.cls-2{fill:#231f20;}</style></defs><title>Download Report 30x30px</title><polygon class="cls-1" points="10 5.41 7.41 8 10 8 10 5.41"/><path class="cls-1" d="M12,9a1,1,0,0,1-1,1H6V26H23V4H12Zm3,1a1,1,0,0,1,1,1v8.59l2.29-2.3a1,1,0,0,1,1.42,1.42l-4,4a1.19,1.19,0,0,1-.33.22A1.22,1.22,0,0,1,15,23a1,1,0,0,1-.38-.08h0a.85.85,0,0,1-.3-.19l0,0-4-4a1,1,0,0,1,1.42-1.42L14,19.59V11A1,1,0,0,1,15,10Z"/><path class="cls-2" d="M23,2H11a1,1,0,0,0-.71.29l-6,6A1,1,0,0,0,4,9V26a2,2,0,0,0,2,2H23a2,2,0,0,0,2-2V4A2,2,0,0,0,23,2ZM10,5.41V8H7.41ZM23,26H6V10h5a1,1,0,0,0,1-1V4H23Z"/><path class="cls-2" d="M14,19.59l-2.29-2.3a1,1,0,0,0-1.42,1.42l4,4,0,0a.85.85,0,0,0,.3.19h0A1,1,0,0,0,15,23a1.22,1.22,0,0,0,.38-.07,1.19,1.19,0,0,0,.33-.22l4-4a1,1,0,0,0-1.42-1.42L16,19.59V11a1,1,0,0,0-2,0Z"/></svg>