<svg id="Layer_1" data-name="Layer 1" xmlns="http://www.w3.org/2000/svg" viewBox="0 0 30 30"><defs><style>.cls-1{fill:#231f20;}.cls-2{fill:#fff;}</style></defs><title>Edit Profile 30x30px</title><rect class="cls-1" width="30" height="30" rx="1.07"/><path class="cls-2" d="M5.73,24.27l1.35-6.76L18.59,6a2,2,0,0,1,2.82,0L24,8.59a2,2,0,0,1,0,2.82L12.49,22.92ZM12,22h0ZM8.92,18.49l-.65,3.24,3.24-.65L22.59,10,20,7.41Z"/><path class="cls-2" d="M21,14a1,1,0,0,1-.71-.29l-4-4a1,1,0,0,1,1.42-1.42l4,4a1,1,0,0,1,0,1.42A1,1,0,0,1,21,14Z"/></svg>