<svg xmlns="http://www.w3.org/2000/svg" viewBox="0 0 30 30"><path fill="none" d="M9.74,14.32A6,6,0,0,1,11.91,18h1.5l3.89-7H11.59Z"/><path fill="none" d="M8.75,16.11,6.87,19.49A1,1,0,0,1,6,20a1,1,0,0,1-.49-.13,1,1,0,0,1-.38-1.36L7,15.14A4.09,4.09,0,0,0,6,15a4,4,0,1,0,2.75,1.11Z"/><path fill="none" d="M24,15h-.1L25,18.73A1,1,0,0,1,24.27,20,.84.84,0,0,1,24,20a1,1,0,0,1-1-.73L22,15.57A4,4,0,1,0,24,15Z"/><path fill="currentColor" d="M24,13a4.87,4.87,0,0,0-.66,0l-2-7H23a1,1,0,0,0,0-2H20a1,1,0,0,0-.8.4,1,1,0,0,0-.16.87L20.1,9H11.65L11.2,8h.18a1,1,0,1,0,0-2h-5a1,1,0,1,0,0,2H9L9.88,10,8,13.35A6,6,0,1,0,11.91,20H14a1,1,0,0,0,.34-.07l.09,0a1,1,0,0,0,.27-.19h0a1.12,1.12,0,0,0,.16-.22L19.59,11h1.08l.74,2.59A6,6,0,1,0,24,13ZM6,23a4,4,0,0,1,0-8,4.09,4.09,0,0,1,1,.14L5.13,18.51a1,1,0,0,0,.38,1.36A1,1,0,0,0,6,20a1,1,0,0,0,.87-.51l1.88-3.38A4,4,0,0,1,6,23Zm7.41-5h-1.5a6,6,0,0,0-2.17-3.68L11.59,11H17.3ZM24,23a4,4,0,0,1-2-7.43L23,19.27A1,1,0,0,0,24,20a.84.84,0,0,0,.27,0A1,1,0,0,0,25,18.73L23.9,15H24a4,4,0,0,1,0,8Z"/></svg>
