<svg id="Layer_1" data-name="Layer 1" xmlns="http://www.w3.org/2000/svg" viewBox="0 0 30 30"><defs><style>.cls-1{fill:#231f20;}</style></defs><title>Flag 30x30px</title><path class="cls-1" d="M8,28.4a1,1,0,0,1-1-.75l-6-23A1,1,0,0,1,3,4.14l6,23a1,1,0,0,1-.72,1.22A.73.73,0,0,1,8,28.4Z"/><path class="cls-1" d="M19.09,19a3.62,3.62,0,0,1-3.47-2.69c-.67-1.28-2.91-.6-2.94-.59L9.34,16.94a1,1,0,0,1-.8-.05,1,1,0,0,1-.5-.63l-3-11a1,1,0,0,1,.57-1.18L11,1.84a4.2,4.2,0,0,1,5.5,2.6C17,6.15,18.2,5.85,18.33,5.81l8.4-2a1,1,0,0,1,1.13,1.4l-2.68,5.66,3.59,4.27a1,1,0,0,1,.23.64v.16a1,1,0,0,1-.77,1l-8.33,2A3.22,3.22,0,0,1,19.09,19Zm-5.17-5.46a3.66,3.66,0,0,1,3.53,2s0,.07,0,.11c.55,1.59,1.59,1.45,1.9,1.36l6.92-1.66-3.08-3.66a1,1,0,0,1-.13-1.07l2.06-4.35-6.3,1.52a3.57,3.57,0,0,1-4.3-2.65,2.22,2.22,0,0,0-2.92-1.37L7.2,5.58l2.48,9.11L12,13.82A6.66,6.66,0,0,1,13.92,13.54Z"/></svg>