<svg id="Layer_1" data-name="Layer 1" xmlns="http://www.w3.org/2000/svg" viewBox="0 0 30 30"><defs><style>.cls-1{fill:none;}</style></defs><title>Parachute 30x30px</title><path class="cls-1" d="M8.94,10c0-2,.29-5.17,1.6-7.39-3.15.85-7,2.82-8.18,7.35a7.44,7.44,0,0,1,3.31-.77A6.7,6.7,0,0,1,8.94,10Z"/><path class="cls-1" d="M19.05,10.32c-.08-2.54-.52-5.83-2-7.4A2.69,2.69,0,0,0,15,2h0a2.89,2.89,0,0,0-2.23,1c-1.5,1.65-1.84,5.09-1.84,7.36a8.07,8.07,0,0,1,8.12,0Z"/><path class="cls-1" d="M11.09,23.41h0a.36.36,0,0,1,0-.09A35.68,35.68,0,0,1,9,13c0-.62-1.27-1.77-3.33-1.77S2,12.48,2,13c0,.2.36,5.14,9,11.15h0V24A2,2,0,0,1,11.09,23.41Z"/><path class="cls-1" d="M24.33,9.23a7.44,7.44,0,0,1,3.31.77c-1.2-4.59-5.14-6.55-8.31-7.38A16.65,16.65,0,0,1,21,10.05,6.64,6.64,0,0,1,24.33,9.23Z"/><rect class="cls-1" x="13" y="24" width="4" height="4"/><path class="cls-1" d="M24.33,11.23c-2,0-3.21,1-3.32,1.68a1.49,1.49,0,0,0,0,.17,30.93,30.93,0,0,1-2.07,10.29s0,0,0,0h0A1.92,1.92,0,0,1,19,24v.13c8.64-6,9-10.93,9-11.14C28,12.48,26.53,11.23,24.33,11.23Z"/><path class="cls-1" d="M15,11.23c-2.34,0-4,1.34-4,1.77a33.61,33.61,0,0,0,1.73,9h0L13,22h4l.3,0A29.47,29.47,0,0,0,19,13C19,12.57,17.34,11.23,15,11.23Z"/><path d="M15.34,0h-.75C12.17.14,0,1.37,0,13H0c0,.26.13,6.46,11,13.55V28a2,2,0,0,0,2,2h4a2,2,0,0,0,2-2V26.55C29.87,19.46,30,13.26,30,13,30,1.25,17.59.12,15.34,0Zm12.3,10a7.44,7.44,0,0,0-3.31-.77,6.64,6.64,0,0,0-3.29.82,16.65,16.65,0,0,0-1.71-7.43C22.5,3.45,26.44,5.41,27.64,10ZM12.77,3A2.89,2.89,0,0,1,15,2h0a2.69,2.69,0,0,1,2.08.92c1.45,1.57,1.89,4.86,2,7.4a8.07,8.07,0,0,0-8.12,0C10.93,8.06,11.27,4.62,12.77,3Zm-2.23-.32C9.23,4.87,9,8,8.94,10a6.7,6.7,0,0,0-3.27-.81A7.44,7.44,0,0,0,2.36,10C3.55,5.47,7.39,3.5,10.54,2.65ZM11,24.14c-8.64-6-9-11-9-11.15,0-.51,1.47-1.76,3.67-1.76S9,12.38,9,13a35.68,35.68,0,0,0,2.05,10.32.36.36,0,0,0,0,.09h0A2,2,0,0,0,11,24v.14ZM13,28V24h4v4Zm4.3-6L17,22H13l-.27,0h0A33.61,33.61,0,0,1,11,13c0-.43,1.66-1.77,4-1.77s4,1.34,4,1.77A29.47,29.47,0,0,1,17.3,22ZM19,24.13V24a1.92,1.92,0,0,0-.09-.59h0s0,0,0,0A30.93,30.93,0,0,0,21,13.08a1.49,1.49,0,0,1,0-.17c.11-.64,1.35-1.68,3.32-1.68,2.2,0,3.66,1.25,3.67,1.76C28,13.2,27.64,18.14,19,24.13Z"/></svg>