<svg xmlns="http://www.w3.org/2000/svg" viewBox="0 0 30 30"><path fill="none" d="M24.53,7.47a5,5,0,0,0-7.06,0l-1,1L18,10.12a4.29,4.29,0,1,1-6.06,0l1.61-1.61-1-1a5,5,0,0,0-7.07,0,5,5,0,0,0,0,7.12L15,24.12l9.54-9.54A5,5,0,0,0,24.53,7.47Z"/><path fill="none" d="M13.38,14.78a2.29,2.29,0,0,0,3.24-3.24L15,9.92l-1.62,1.62A2.3,2.3,0,0,0,13.38,14.78Z"/><path fill="currentColor" d="M26,6.06a7,7,0,0,0-9.9,0L15,7.11,14,6.06a7,7,0,0,0-9.9,0,7.06,7.06,0,0,0,0,9.94L14.29,26.24a1,1,0,0,0,1.42,0L26,16A7.06,7.06,0,0,0,26,6.06ZM15,9.92l1.62,1.62a2.29,2.29,0,1,1-3.24,0Zm9.54,4.66L15,24.12,5.47,14.59a5,5,0,0,1,0-7.12,5,5,0,0,1,7.07,0l1,1L12,10.12a4.29,4.29,0,1,0,6.06,0L16.42,8.51l1-1a5,5,0,0,1,7.06,0A5,5,0,0,1,24.54,14.58Z"/></svg>
