<svg id="Layer_1" data-name="Layer 1" xmlns="http://www.w3.org/2000/svg" viewBox="0 0 30 30"><defs><style>.cls-1{fill:none;}.cls-2{fill:#231f20;}</style></defs><title>Reports 30x30px</title><path class="cls-1" d="M21,7a1,1,0,0,1-1,1H10A1,1,0,0,1,9,7V6H7V26H23V6H21ZM10,11h5.83v2H10ZM20,23H10V21H20Zm0-5H10V16H20Z"/><rect class="cls-1" x="11" y="4" width="8" height="2"/><path class="cls-2" d="M23,4H21V3a1,1,0,0,0-1-1H10A1,1,0,0,0,9,3V4H7A2,2,0,0,0,5,6V26a2,2,0,0,0,2,2H23a2,2,0,0,0,2-2V6A2,2,0,0,0,23,4ZM11,4h8V6H11ZM23,26H7V6H9V7a1,1,0,0,0,1,1H20a1,1,0,0,0,1-1V6h2Z"/><rect class="cls-2" x="10" y="11" width="5.83" height="2"/><rect class="cls-2" x="10" y="16" width="10" height="2"/><rect class="cls-2" x="10" y="21" width="10" height="2"/></svg>