<svg id="Layer_1" data-name="Layer 1" xmlns="http://www.w3.org/2000/svg" viewBox="0 0 30 30"><defs><style>.cls-1{fill:none;}.cls-2{fill:#231f20;}</style></defs><title>Requests 30x30px</title><path class="cls-1" d="M10,16a1,1,0,0,1,.83.45L12.54,19h4.92l1.71-2.55A1,1,0,0,1,20,16h4V6H6V16ZM8,8H22v2H8Zm0,4H22v2H8Z"/><path class="cls-1" d="M20.54,18l-1.71,2.55A1,1,0,0,1,18,21H12a1,1,0,0,1-.83-.45L9.46,18H6v6H24V18Z"/><path class="cls-2" d="M4,4V26H26V4ZM24,6V16H20a1,1,0,0,0-.83.45L17.46,19H12.54l-1.71-2.55A1,1,0,0,0,10,16H6V6ZM6,24V18H9.46l1.71,2.55A1,1,0,0,0,12,21h6a1,1,0,0,0,.83-.45L20.54,18H24v6Z"/><rect class="cls-2" x="8" y="8" width="14" height="2"/><rect class="cls-2" x="8" y="12" width="14" height="2"/></svg>