<svg id="Layer_1" data-name="Layer 1" xmlns="http://www.w3.org/2000/svg" viewBox="0 0 30 30"><defs><style>.cls-1{fill:none;}.cls-2{fill:#231f20;}</style></defs><title>Scale 30x30px</title><path class="cls-1" d="M15,15a4,4,0,1,0,4,4A4,4,0,0,0,15,15Zm1,4a1,1,0,0,1-2,0V17a1,1,0,0,1,2,0Z"/><path class="cls-1" d="M15,11H6.91L5,27H25L23,11H15Zm0,14a6,6,0,1,1,6-6A6,6,0,0,1,15,25Z"/><path class="cls-2" d="M15,13a6,6,0,1,0,6,6A6,6,0,0,0,15,13Zm0,10a4,4,0,1,1,4-4A4,4,0,0,1,15,23Z"/><path class="cls-2" d="M25.08,7a1,1,0,0,0,.84-.46l1.92-3a1,1,0,1,0-1.68-1.08L24.53,5H5.47L3.84,2.46A1,1,0,0,0,2.16,3.54l1.92,3A1,1,0,0,0,4.92,7H14V9H6.91A2,2,0,0,0,5,10.75l-2,16a2,2,0,0,0,.49,1.6A1.9,1.9,0,0,0,4.93,29H25.07a1.9,1.9,0,0,0,1.42-.65,2,2,0,0,0,.49-1.6l-2-16A2,2,0,0,0,23.09,9H16V7ZM25,27H5L6.91,11H23Z"/><path class="cls-2" d="M15,16a1,1,0,0,0-1,1v2a1,1,0,0,0,2,0V17A1,1,0,0,0,15,16Z"/></svg>