<svg id="Layer_1" data-name="Layer 1" xmlns="http://www.w3.org/2000/svg" viewBox="0 0 30 30"><title>Star 30x30px</title><path d="M22.23,28a1,1,0,0,1-.47-.12L14.5,24,7.24,27.88a1,1,0,0,1-1-.07,1,1,0,0,1-.4-1l1.39-8.17L1.3,12.88a1,1,0,0,1,.55-1.7L10,10,13.6,2.56a1,1,0,0,1,1.8,0L19,10l8.12,1.19a1,1,0,0,1,.55,1.7l-5.88,5.78,1.39,8.17a1,1,0,0,1-.4,1A1,1,0,0,1,22.23,28ZM14.5,21.9A1,1,0,0,1,15,22l5.93,3.14-1.14-6.68a1,1,0,0,1,.29-.88l4.82-4.74-6.65-1a1,1,0,0,1-.76-.55l-3-6.06-3,6.06a1,1,0,0,1-.76.55l-6.65,1L9,17.6a1,1,0,0,1,.29.88L8.1,25.16,14,22A1,1,0,0,1,14.5,21.9Z"/></svg>