<svg id="Layer_1" data-name="Layer 1" xmlns="http://www.w3.org/2000/svg" viewBox="0 0 30 30"><defs><style>.cls-1{fill:none;}.cls-2{fill:#231f20;}</style></defs><title>Tree 30x30px</title><path class="cls-1" d="M11.29,14.71a1,1,0,0,1,1.42-1.42L14,14.59V10a1,1,0,0,1,2,0v2.59l1.29-1.3a1,1,0,0,1,1.42,1.42L16,15.41V19h4a4.13,4.13,0,0,0,4-4.25,4.21,4.21,0,0,0-3.21-4.17,1,1,0,0,1-.79-1V9A5,5,0,0,0,10,9v.6a1,1,0,0,1-.79,1A4.21,4.21,0,0,0,6,14.75,4.13,4.13,0,0,0,10,19h4V17.41Z"/><path class="cls-2" d="M20,21a6.13,6.13,0,0,0,6-6.25,6.26,6.26,0,0,0-4-5.89,7,7,0,0,0-14,0,6.26,6.26,0,0,0-4,5.89A6.13,6.13,0,0,0,10,21h4v5H9a1,1,0,0,0,0,2H21a1,1,0,0,0,0-2H16V21ZM10,19a4.13,4.13,0,0,1-4-4.25,4.21,4.21,0,0,1,3.21-4.17,1,1,0,0,0,.79-1V9A5,5,0,0,1,20,9v.6a1,1,0,0,0,.79,1A4.21,4.21,0,0,1,24,14.75,4.13,4.13,0,0,1,20,19H16V15.41l2.71-2.7a1,1,0,0,0-1.42-1.42L16,12.59V10a1,1,0,0,0-2,0v4.59l-1.29-1.3a1,1,0,0,0-1.42,1.42L14,17.41V19Z"/></svg>