<svg id="Layer_1" data-name="Layer 1" xmlns="http://www.w3.org/2000/svg" viewBox="0 0 30 30"><title>Truck 30x30px</title><path d="M25.48,12H20V11H18v2H17V13C17,9.28,15.08,7,12,7h0a2.94,2.94,0,0,0-1.22.31A4.58,4.58,0,0,0,6.36,4a1,1,0,0,0-1,1,1,1,0,0,0,1,1,2.68,2.68,0,0,1,2.11,1A2.34,2.34,0,0,0,8,7H8C4.92,7,3,9.28,3,13V13H2V11H0V25H3A3.5,3.5,0,0,0,10,25H20A3.5,3.5,0,0,0,27,25h3V17.65ZM8,9a2.89,2.89,0,0,1,.7.27c.25.12.48.22.7.3l.89,0,.31,0c.22-.08.45-.18.7-.3A2.89,2.89,0,0,1,12,9c2.61,0,3,2.47,3,3.95V13H5V13C5,11.47,5.39,9,8,9Zm6.75,6c-.05.22-.12.43-.18.64L14,17H6l-.51-1.33c-.08-.22-.14-.44-.2-.67ZM2,15H3.21a9.83,9.83,0,0,0,.34,1.32h0s0,0,0,0l.25.64H2ZM6.5,26A1.5,1.5,0,1,1,8,24.5,1.5,1.5,0,0,1,6.5,26ZM18,23H9.66a3.5,3.5,0,0,0-6.32,0H2V19H18Zm0-6H16.15l.26-.59a.42.42,0,0,0,0-.1A10.09,10.09,0,0,0,16.79,15H18Zm2-3h4.52l2.4,3H20Zm3.5,12A1.5,1.5,0,1,1,25,24.5,1.5,1.5,0,0,1,23.5,26ZM28,20v3H26.66a1.19,1.19,0,0,0-.08-.16,3.5,3.5,0,0,0-6-.21c-.07.12-.14.24-.2.37H20V19h8Z"/></svg>