<?xml version="1.0" encoding="UTF-8"?>
<svg width="790px" height="775px" viewBox="0 0 790 775" version="1.1" xmlns="http://www.w3.org/2000/svg" xmlns:xlink="http://www.w3.org/1999/xlink">
    <!-- Generator: Sketch 54.1 (76490) - https://sketchapp.com -->
    <title>Fill 2 Copy</title>
    <desc>Created with Sketch.</desc>
    <g id="Desktop-UI" stroke="none" stroke-width="1" fill="none" fill-rule="evenodd">
        <g id="1.0-Tree-Owner-Dashboard" transform="translate(-573.000000, -136.000000)" fill="#2B3336">
            <g id="Page-Header" transform="translate(100.000000, 109.000000)">
                <g id="Logo">
                    <path d="M1112.80628,462.746588 C1067.70615,504.417804 997.288414,504.417804 952.188276,462.746588 C947.937241,458.813463 947.937241,452.191872 952.188276,448.258746 C997.288414,406.580418 1067.70615,406.580418 1112.80628,448.258746 C1117.06457,452.191872 1117.06457,458.813463 1112.80628,462.746588 Z M1057.55253,656.995005 C995.618418,655.16725 945.839054,605.382664 944.004238,543.442053 C943.837436,537.610642 948.616661,532.823662 954.454713,533.004987 C1016.38883,534.832743 1066.16094,584.617328 1067.99576,646.550687 C1068.16256,652.396604 1063.39058,657.17633 1057.55253,656.995005 Z M877.047546,356.281113 C876.605557,356.781656 876.213471,357.31847 875.757225,357.811759 C871.822105,362.062747 865.178026,362.062747 861.235777,357.811759 C860.779531,357.311216 860.394574,356.781656 859.945457,356.281113 C823.930554,316.027301 820.416036,256.62228 849.323484,212.581751 C852.859389,207.220864 856.744607,202.034078 861.235777,197.188241 C865.178026,192.937253 871.829234,192.937253 875.757225,197.188241 C880.241266,202.034078 884.140742,207.213609 887.662389,212.574497 C916.591225,256.62228 913.069577,316.027301 877.047546,356.281113 Z M780.558519,378.995392 C718.614092,377.153329 668.846775,327.388618 667.004615,265.454688 C666.830553,259.609401 671.602762,254.837443 677.448354,255.004244 C739.385529,256.846307 789.160099,306.61827 790.995006,368.544947 C791.176321,374.390234 786.396859,379.169445 780.558519,378.995392 Z M677.448354,656.995005 C671.602762,657.17633 666.830553,652.396604 667.004615,646.550687 C668.846775,584.617328 718.614092,534.832743 780.558519,533.004987 C786.396859,532.823662 791.176321,537.610642 790.995006,543.442053 C789.160099,605.382664 739.385529,655.16725 677.448354,656.995005 Z M622.188241,448.258746 C667.287889,406.580418 737.712111,406.580418 782.811759,448.258746 C787.062747,452.191872 787.062747,458.813463 782.811759,462.746588 C737.712111,504.417804 667.287889,504.417804 622.188241,462.746588 C617.937253,458.813463 617.937253,452.191872 622.188241,448.258746 Z M944.006214,365.178134 C945.785975,305.083494 994.079238,256.792768 1054.1843,255.005837 C1061.89902,254.780655 1068.22625,261.100289 1067.99379,268.821866 C1066.21403,328.916506 1017.9135,377.207232 957.815705,378.994163 L957.808441,378.994163 C950.093722,379.219345 943.773756,372.899711 944.006214,365.185398 L944.006214,365.178134 Z M1255.55711,315.717628 C1253.37658,301.34809 1250.39652,287.394109 1246.63873,273.9213 C1226.81041,202.97034 1185.43843,145.761935 1124.55066,115.491858 C1075.58315,91.1489422 1020.44473,87.3797635 965.204547,100.947349 C941.196874,106.852638 917.1892,116.133421 893.653976,128.352267 L901.249501,27 L834.743231,27 L842.346024,128.344976 C818.803531,116.133421 794.810395,106.852638 770.795453,100.947349 C715.562541,87.3797635 660.41685,91.1489422 611.463874,115.491858 C550.561575,145.761935 509.189587,202.97763 489.368538,273.935881 C485.603483,287.4014 482.630689,301.34809 480.442888,315.710337 C475.623909,344.09218 473,373.574885 473,403.895995 C473,581.171331 559.937869,731.304206 680.041651,782.855197 C694.709373,789.146882 709.849543,794.016923 725.411284,797.239316 C740.456964,800.352351 755.880604,802 771.594982,802 C793.269484,802 814.297095,798.558893 834.634204,792.653603 L858.838125,438.897595 L859.790292,422.289879 C860.044687,417.733328 863.933305,414.255769 868.468815,414.510936 C869.624497,414.583841 870.68569,414.926493 871.66693,415.414955 C874.385329,416.661628 876.29693,419.322653 876.500446,422.413817 L900.893347,792.522375 C921.383093,798.51515 942.577878,802 964.412286,802 C980.126664,802 995.550304,800.352351 1010.60325,797.239316 C1026.15773,794.016923 1041.30516,789.146882 1055.95835,782.855197 C1176.07667,731.304206 1263,581.171331 1263,403.895995 C1263,373.582175 1260.36882,344.09947 1255.55711,315.717628 L1255.55711,315.717628 Z" id="Fill-2-Copy"></path>
                </g>
            </g>
        </g>
    </g>
</svg>