<?xml version="1.0" encoding="UTF-8"?>
<svg width="51px" height="50px" viewBox="0 0 51 50" version="1.1" xmlns="http://www.w3.org/2000/svg" xmlns:xlink="http://www.w3.org/1999/xlink">
    <!-- Generator: Sketch 53.2 (72643) - https://sketchapp.com -->
    <title>NFT02 - Brand Files_Logo Horizontal Colour</title>
    <desc>Created with Sketch.</desc>
    <g id="Desktop-UI" stroke="none" stroke-width="1" fill="none" fill-rule="evenodd">
        <g id="1.0-Admin-Home-Page-Dashboard" transform="translate(-180.000000, -2066.000000)" fill="#3BAD4B">
            <g id="Footer" transform="translate(0.000000, 1966.000000)">
                <g id="NFT02---Brand-Files_Logo-Horizontal-Colour" transform="translate(180.000000, 100.000000)">
                    <path d="M41.3137116,28.0250793 C38.3965167,30.7808811 33.8417135,30.7808811 30.9245186,28.0250793 C30.6495506,27.7649737 30.6495506,27.3270745 30.9245186,27.0669689 C33.8417135,24.3106968 38.3965167,24.3106968 41.3137116,27.0669689 C41.5891489,27.3270745 41.5891489,27.7649737 41.3137116,28.0250793 Z M37.7846424,40.5369557 C33.7774292,40.4184266 30.5566433,37.1899194 30.4379284,33.1730995 C30.4271361,32.7949352 30.7363579,32.4845018 31.114087,32.4962607 C35.1213002,32.6147898 38.3416169,35.843297 38.4603318,39.8596465 C38.471124,40.2387515 38.1623715,40.5487145 37.7846424,40.5369557 Z M26.0628398,21.1132329 C26.0337477,21.1456873 26.0079401,21.1804935 25.9779094,21.2124775 C25.7188952,21.4881048 25.281574,21.4881048 25.0220906,21.2124775 C24.9920599,21.1800231 24.9667216,21.1456873 24.9371602,21.1132329 C22.5666167,18.5032407 22.3352869,14.651515 24.2380094,11.7959982 C24.4707468,11.4484069 24.7264765,11.1121041 25.0220906,10.7979079 C25.281574,10.5222807 25.7193644,10.5222807 25.9779094,10.7979079 C26.2730543,11.1121041 26.5297224,11.4479366 26.7615214,11.7955279 C28.6656515,14.651515 28.4338526,18.5032407 26.0628398,21.1132329 Z M19.8868515,22.5962579 C15.879169,22.476788 12.6593216,19.2492216 12.5401375,15.2324017 C12.528876,14.8532967 12.8376285,14.543804 13.2158268,14.5546222 C17.2230401,14.674092 20.4433567,17.9021288 20.5620716,21.9184783 C20.5738023,22.2975833 20.2645806,22.6075464 19.8868515,22.5962579 Z M13.2158268,40.5369557 C12.8376285,40.5487145 12.528876,40.2387515 12.5401375,39.8596465 C12.6593216,35.843297 15.879169,32.6147898 19.8868515,32.4962607 C20.2645806,32.4845018 20.5738023,32.7949352 20.5620716,33.1730995 C20.4433567,37.1899194 17.2230401,40.4184266 13.2158268,40.5369557 Z M9.6862884,27.0669689 C12.6034833,24.3106968 17.1587557,24.3106968 20.0759506,27.0669689 C20.3509187,27.3270745 20.3509187,27.7649737 20.0759506,28.0250793 C17.1587557,30.7808811 12.6034833,30.7808811 9.6862884,28.0250793 C9.41132037,27.7649737 9.41132037,27.3270745 9.6862884,27.0669689 Z M30.4449668,21.6950603 C30.5599279,17.8038249 33.6793604,14.6769141 37.5617588,14.5612071 C38.0600797,14.5466262 38.4687779,14.9558338 38.4537626,15.4558197 C38.3388015,19.3470551 35.2188998,22.4739659 31.3369706,22.5896729 L31.3365014,22.5896729 C30.8381805,22.6042539 30.4299515,22.1950462 30.4449668,21.6955307 L30.4449668,21.6950603 Z M50.5195098,18.6269437 C50.3787412,17.6998768 50.1863574,16.79962 49.9437662,15.9304065 C48.6637102,11.3529251 45.9928604,7.66206034 42.0621314,5.70915214 C38.9009375,4.13864143 35.3413685,3.89546861 31.7752302,4.77079668 C30.2253678,5.15178311 28.6755053,5.75054326 27.1561428,6.53885591 L27.6464868,0 L23.353044,0 L23.8438572,6.53838556 C22.3240254,5.75054326 20.7751014,5.15178311 19.2247698,4.77079668 C15.6591007,3.89546861 12.0990625,4.13864143 8.93880705,5.70915214 C5.00713964,7.66206034 2.33628978,11.3533955 1.05670307,15.9313472 C0.813642595,16.8000903 0.62172805,17.6998768 0.480490206,18.6264734 C0.169391567,20.45756 0,22.35967 0,24.3158707 C0,35.7529891 5.61244468,45.438981 13.36598,48.7648514 C14.3128835,49.1707666 15.290287,49.4849628 16.2949056,49.6928591 C17.2662091,49.8937001 18.2619124,50 19.2763849,50 C20.6756249,50 22.0331036,49.7779931 23.3460056,49.3970067 L24.9085372,26.5740384 L24.9700062,25.5025728 C24.9864292,25.2086018 25.2374665,24.9842432 25.5302653,25.0007055 C25.6048726,25.0054091 25.67338,25.0275157 25.7367259,25.0590294 C25.9122174,25.1394598 26.0356246,25.3111389 26.048763,25.5105688 L27.6234946,49.3885403 C28.9462503,49.775171 30.3145212,50 31.7240843,50 C32.7385568,50 33.7342601,49.8937001 34.7060328,49.6928591 C35.7101823,49.4849628 36.6880549,49.1707666 37.63402,48.7648514 C45.3884938,45.438981 51,35.7529891 51,24.3158707 C51,22.3601404 50.8301392,20.4580303 50.5195098,18.6269437 L50.5195098,18.6269437 Z" id="Fill-2"></path>
                </g>
            </g>
        </g>
    </g>
</svg>