<?xml version="1.0" encoding="UTF-8"?>
<svg width="28px" height="30px" viewBox="0 0 28 30" version="1.1" xmlns="http://www.w3.org/2000/svg" xmlns:xlink="http://www.w3.org/1999/xlink">
    <!-- Generator: Sketch 54.1 (76490) - https://sketchapp.com -->
    <title>Combined Shape</title>
    <desc>Created with Sketch.</desc>
    <g id="Desktop-UI" stroke="none" stroke-width="1" fill="none" fill-rule="evenodd">
        <g id="3.0-My-Tree-Profile-Tree-Deactivated" transform="translate(-195.000000, -280.000000)" fill="#3BAD4B" fill-rule="nonzero">
            <g id="My-Registered-Trees" transform="translate(180.000000, 199.000000)">
                <g id="Card-1" transform="translate(0.000000, 66.000000)">
                    <g id="Tree-Icon" transform="translate(15.000000, 15.000000)">
                        <path d="M12.2077218,13.4261353 L12.2077218,11.3032506 C12.2077218,10.4730282 12.8784508,9.8 13.7188329,9.8 C14.5533965,9.8 15.229944,10.4768959 15.229944,11.3032506 L15.229944,13.4261353 L17.7400304,11.1003993 C18.374562,10.5124701 19.4047252,10.5136639 20.0291332,11.0921058 L19.8794309,10.9534239 C20.5091358,11.5367727 20.5045721,12.4868842 19.8706914,13.0742103 L15.7420798,16.8996007 C15.5903396,17.0401965 15.4159746,17.1471024 15.229944,17.2204806 L15.229944,28.2967494 C15.229944,29.1269718 14.5592149,29.8 13.7188329,29.8 C12.8842693,29.8 12.2077218,29.1231041 12.2077218,28.2967494 L12.2077218,17.2204806 C12.0216912,17.1471024 11.8473262,17.0401965 11.695586,16.8996007 L7.56697441,13.0742103 C6.93309364,12.4868842 6.92852997,11.5367727 7.55823491,10.9534239 L7.40853254,11.0921058 C8.03294062,10.5136639 9.06310374,10.5124701 9.69763538,11.1003993 L12.2077218,13.4261353 Z M9.18403304,21.0000027 C10.0172076,21.0015133 10.6921229,21.6277346 10.6921229,22.4 C10.6921229,23.1731986 10.0155754,23.8 9.18101177,23.8 C8.67622559,23.8 8.18726033,23.6834558 7.75236736,23.4661751 C5.02245135,22.6073861 3.14142112,20.223475 3.14105517,17.5007947 C1.26680798,16.1982702 0.118832891,14.1416817 0.118832891,11.9 C0.118832891,8.42157399 2.85732598,5.53572721 6.44584226,4.99207147 C7.41643774,2.08104815 10.3283745,9.9475983e-14 13.7188329,9.9475983e-14 C17.1132793,9.9475983e-14 20.0225618,2.08455507 20.9591367,4.99249882 C24.5748187,5.53611017 27.3188329,8.41520129 27.3188329,11.9 C27.3188329,14.1416817 26.1708578,16.1982702 24.2966106,17.5007947 C24.2962449,20.2218054 22.4175057,22.6045944 19.6899938,23.4646952 C19.253835,23.6830396 18.7630828,23.8 18.256654,23.8 C17.4220904,23.8 16.7455429,23.1731986 16.7455429,22.4 C16.7455429,21.6271646 17.4214549,21.000589 18.2554779,21.0000004 L18.42519,20.8991615 L18.620292,20.8429557 C20.1858645,20.3919397 21.2743884,19.0435403 21.2743884,17.5 C21.2743884,17.3258618 21.2607793,17.1537824 21.2339029,16.9845019 L21.0829381,16.0336511 L21.9864358,15.561419 C23.4030032,14.8210203 24.2966107,13.4336582 24.2966107,11.9 C24.2966107,9.57541121 22.2615476,7.70004068 19.7166142,7.70016394 L18.3821228,7.70022858 L18.217032,6.47335884 C17.936157,4.38604087 16.0113094,2.8 13.7188329,2.8 C11.4278726,2.8 9.48994987,4.38808649 9.1708323,6.4945866 L8.98822201,7.7 L7.67438845,7.7 C5.17069758,7.7 3.14105511,9.58040405 3.14105511,11.9 C3.14105511,13.4336582 4.03466257,14.8210203 5.45122998,15.561419 L6.35472767,16.0336511 L6.20376287,16.9845019 C6.17688652,17.1537824 6.16327734,17.3258618 6.16327734,17.5 C6.16327734,19.044442 7.25307167,20.3934431 8.81992554,20.8436899 L9.01488743,20.8997136 L9.18403304,21.0000027 Z" id="Combined-Shape"></path>
                    </g>
                </g>
            </g>
        </g>
    </g>
</svg>